<svg xmlns="http://www.w3.org/2000/svg" viewBox="0 0 207.17 172"><defs><style>.cls-1{fill:#1e2275;}</style></defs><title>Statistik_blau</title><g id="Ebene_2" data-name="Ebene 2"><g id="Ebene_1-2" data-name="Ebene 1"><path class="cls-1" d="M42.67,172H0V102.43a8.13,8.13,0,0,1,8.12-8.12H34.55a8.13,8.13,0,0,1,8.12,8.12Z"/><path class="cls-1" d="M207.17,172H164.5V52.82A10.49,10.49,0,0,1,175,42.33h21.69a10.49,10.49,0,0,1,10.49,10.49Z"/><path class="cls-1" d="M152.33,172H109.67V77.44a9.38,9.38,0,0,1,9.39-9.39h23.88a9.38,9.38,0,0,1,9.39,9.39Z"/><path class="cls-1" d="M97.5,172H54.83V55.38A10.39,10.39,0,0,1,65.22,45h21.9A10.38,10.38,0,0,1,97.5,55.38Z"/><rect class="cls-1" x="-4.74" y="38.98" width="95.38" height="11.03" transform="translate(-18.84 47.19) rotate(-48.51)"/><rect class="cls-1" x="95.38" y="-10.39" width="11.03" height="71.98" transform="translate(35.1 106.26) rotate(-65.03)"/><rect class="cls-1" x="124.11" y="18.99" width="66.02" height="11.03" transform="translate(8.8 81.85) rotate(-30)"/><circle class="cls-1" cx="11.83" cy="80" r="8.5"/><circle class="cls-1" cx="71.83" cy="13" r="8.5"/><circle class="cls-1" cx="130.83" cy="38.5" r="8.5"/><circle class="cls-1" cx="185.33" cy="8.5" r="8.5"/></g></g></svg>