<svg xmlns="http://www.w3.org/2000/svg" viewBox="0 0 80 80"><defs><style>.cls-1{fill:#adadb9;}</style></defs><title>X3_leer_grau</title><g id="Ebene_2" data-name="Ebene 2"><g id="Ebene_1-2" data-name="Ebene 1"><path class="cls-1" d="M40,0A40,40,0,1,0,80,40,40,40,0,0,0,40,0Zm0,69.7A29.7,29.7,0,1,1,69.7,40,29.7,29.7,0,0,1,40,69.7Z"/><path class="cls-1" d="M49.79,40,61.14,28.65a5.06,5.06,0,0,0,0-7.12l-2.67-2.67a5,5,0,0,0-7.12,0L40,30.21,28.65,18.86a5,5,0,0,0-7.12,0l-2.67,2.67a5.06,5.06,0,0,0,0,7.12L30.21,40,18.86,51.35a5.06,5.06,0,0,0,0,7.12l2.67,2.67a5,5,0,0,0,7.12,0L40,49.79,51.35,61.14a5,5,0,0,0,7.12,0l2.67-2.67a5.06,5.06,0,0,0,0-7.12Z"/></g></g></svg>