<svg xmlns="http://www.w3.org/2000/svg" viewBox="0 0 184.01 204.97"><defs><style>.cls-1{fill:#adadb9;}.cls-2{fill:#fff;}</style></defs><title>Home_grau</title><g id="Ebene_2" data-name="Ebene 2"><g id="Ebene_1-2" data-name="Ebene 1"><path class="cls-1" d="M180.46,84.1,158.36,62l-.67-.67V11.43A3.7,3.7,0,0,0,154,7.74H126.39a3.7,3.7,0,0,0-3.69,3.69V26.35L99.41,3.05a10.51,10.51,0,0,0-14.81,0L3.55,84.1a12.22,12.22,0,0,0,0,17.22l.9.9a.84.84,0,0,0,1.43-.59v-.9a12.53,12.53,0,0,1,12.5-12.5H166.52A12.54,12.54,0,0,1,179,100.73h0a.84.84,0,0,0,1.43.59A12.22,12.22,0,0,0,180.46,84.1Z"/><path class="cls-1" d="M161.12,94.06H22.89c-6.42,0-11.67,4-11.67,8.93v93c0,4.92,5.25,8.94,11.67,8.94H69v-59.9a9.37,9.37,0,0,1,9.34-9.34H105.7a9.37,9.37,0,0,1,9.34,9.34V205h46.08c6.42,0,11.67-4,11.67-8.94V103C172.79,98.08,167.54,94.06,161.12,94.06Z"/><line class="cls-2" x1="115.04" y1="204.97" x2="68.97" y2="204.97"/></g></g></svg>