<svg xmlns="http://www.w3.org/2000/svg" viewBox="0 0 194.98 203.54"><defs><style>.cls-1,.cls-4{fill:#1e2275;}.cls-2{fill:none;}.cls-3{fill:#adadb9;}.cls-4{stroke:#fff;stroke-miterlimit:10;stroke-width:8px;}.cls-5{fill:#fff;}</style></defs><title>MNS_blau</title><g id="Ebene_2" data-name="Ebene 2"><g id="Ebene_1-2" data-name="Ebene 1"><circle class="cls-1" cx="158.91" cy="151.72" r="5.69"/><path class="cls-2" d="M146.36,68.49c.29.36.59.71.89,1.06C147,69.2,146.65,68.85,146.36,68.49Z"/><path class="cls-2" d="M142.24,62.14a10.84,10.84,0,0,0,.5,1.11A10.84,10.84,0,0,1,142.24,62.14Z"/><path class="cls-2" d="M156.54,80.79l.1.13Z"/><path class="cls-2" d="M108.91,147.63a.57.57,0,0,0-.08.13A.57.57,0,0,1,108.91,147.63Z"/><path class="cls-2" d="M104.28,202.26a8.15,8.15,0,0,1-3.41,1.21A8.15,8.15,0,0,0,104.28,202.26Z"/><path class="cls-2" d="M157.64,82.17l.12.16Z"/><path class="cls-2" d="M160.14,85.35l.05.05Z"/><path class="cls-2" d="M157.34,110.33c-.28.75-.57,1.56-.87,2.42C156.77,111.89,157.06,111.08,157.34,110.33Z"/><path class="cls-2" d="M158.38,107.77a9.21,9.21,0,0,1,.63-1.2,33.91,33.91,0,0,0,5-12.11,33.91,33.91,0,0,1-5,12.11A9.21,9.21,0,0,0,158.38,107.77Z"/><path class="cls-2" d="M147.36,69.68l.77.89Z"/><path class="cls-2" d="M114,146.14l-.59-.06Z"/><path class="cls-2" d="M161.44,87l.33.43Z"/><path class="cls-2" d="M60.59,202.17l-3.2-.26Z"/><path class="cls-2" d="M150.89,73.82l.42.53Z"/><path class="cls-2" d="M124.78,147.24h0Z"/><path class="cls-2" d="M149.6,72.26l.25.29Z"/><path class="cls-2" d="M72.9,202.89c-2.2-.1-4.41-.21-6.61-.34C68.49,202.68,70.7,202.79,72.9,202.89Z"/><path class="cls-2" d="M143.59,64.75c.21.33.42.65.65,1C144,65.4,143.8,65.08,143.59,64.75Z"/><path class="cls-2" d="M148.67,71.18l.43.5Z"/><path class="cls-2" d="M152.65,76l.12.15Z"/><path class="cls-2" d="M108.4,148.76q-.09.23-.18.48Q108.31,149,108.4,148.76Z"/><path class="cls-2" d="M155.58,79.6l.07.08Z"/><path class="cls-2" d="M107.91,150.31c0,.16-.08.31-.11.47C107.83,150.62,107.87,150.47,107.91,150.31Z"/><path class="cls-2" d="M142.86,63.49c.16.31.34.62.53.93C143.2,64.11,143,63.8,142.86,63.49Z"/><path class="cls-2" d="M151.7,74.83c.14.16.27.33.4.49C152,75.16,151.84,75,151.7,74.83Z"/><path class="cls-2" d="M158.73,83.55c.07.08.13.17.2.26Z"/><path class="cls-2" d="M30,11.3c1-.57,2.06-1.14,3.12-1.67C32.1,10.16,31.06,10.73,30,11.3Z"/><polygon class="cls-2" points="111.39 145.88 111.4 145.88 111.39 145.88 111.39 145.88"/><path class="cls-2" d="M106.65,162.1c.07-2.43.2-4.72.41-6.76.09-.8.19-1.55.3-2.27-.11.72-.21,1.47-.3,2.27C106.85,157.38,106.72,159.67,106.65,162.1Z"/><path class="cls-2" d="M143.68,144.61a7.47,7.47,0,0,1-.63.48A7.47,7.47,0,0,0,143.68,144.61Z"/><path class="cls-2" d="M144.35,65.89q.41.57.84,1.14Q144.76,66.46,144.35,65.89Z"/><path class="cls-2" d="M109.78,146.45a2.22,2.22,0,0,1,.57-.37A2.22,2.22,0,0,0,109.78,146.45Z"/><path class="cls-2" d="M145.05,143.12a6.69,6.69,0,0,1-.9,1.09A6.21,6.21,0,0,0,145.05,143.12Z"/><path class="cls-2" d="M155.09,116.81c-.26.79-.53,1.58-.8,2.38C154.56,118.39,154.83,117.6,155.09,116.81Z"/><polygon class="cls-2" points="140.86 146.22 140.86 146.22 140.86 146.22 140.86 146.22"/><path class="cls-2" d="M47.35,4c2.18-.66,4.38-1.23,6.62-1.74C51.73,2.79,49.53,3.36,47.35,4Z"/><polygon class="cls-2" points="140.85 146.22 140.86 146.22 140.86 146.22 140.85 146.22"/><path class="cls-2" d="M38.56,7.16q3.12-1.3,6.38-2.38Q41.69,5.86,38.56,7.16Z"/><path class="cls-2" d="M136.39,147.25l-.33,0Z"/><path class="cls-2" d="M145.43,67.33c.22.29.45.58.68.86C145.88,67.91,145.65,67.62,145.43,67.33Z"/><path class="cls-2" d="M134.52,147.43l-.27,0Z"/><path class="cls-2" d="M126.86,147.39l-.22,0Z"/><path class="cls-2" d="M141.9,61a7.36,7.36,0,0,0,.25.85A7.36,7.36,0,0,1,141.9,61Z"/><path class="cls-2" d="M141.71,59.64a5.66,5.66,0,0,0,.12,1.07A5.66,5.66,0,0,1,141.71,59.64Z"/><path class="cls-2" d="M26.58,13.37C16.13,20,8,29,4.17,40A75.73,75.73,0,0,0,1.22,52.19,75.73,75.73,0,0,1,4.17,40C8,29,16.13,20,26.58,13.37Z"/><path class="cls-2" d="M16.62,160.41c19.37-34.13-2.3-48.91-3.8-53.15C10.28,100.11.71,86.85,0,66.79c0-1.57,0-3.49.14-5.62C0,63.3,0,65.22,0,66.79c.69,20.06,10.26,33.32,12.8,40.47,1.5,4.24,23.17,19,3.8,53.15-1.84,3.24,23.25,30.07,33.77,38.63C39.87,190.48,14.78,163.65,16.62,160.41Z"/><path class="cls-2" d="M78.54,203.12c8.12.28,15.71.39,21.29.42a8.11,8.11,0,0,0,.86,0,8.11,8.11,0,0,1-.86,0C94.25,203.51,86.66,203.4,78.54,203.12Z"/><path class="cls-2" d="M142.33,145.53l-.5.25Z"/><path class="cls-2" d="M75.14,0A91.41,91.41,0,0,0,60,1.12c-1.1.18-2.2.38-3.29.6,1.09-.22,2.19-.42,3.29-.6A91.41,91.41,0,0,1,75.14,0Z"/><path class="cls-3" d="M78.54,203.12c-1.86-.07-3.74-.14-5.64-.23C74.8,203,76.68,203.05,78.54,203.12Z"/><path class="cls-3" d="M33.16,9.63q2.64-1.34,5.4-2.47Q35.8,8.3,33.16,9.63Z"/><path class="cls-3" d="M.89,54.29c.1-.7.21-1.39.33-2.1C1.1,52.9,1,53.59.89,54.29Z"/><path class="cls-3" d="M66.29,202.55c-1.92-.12-3.82-.24-5.7-.38C62.47,202.31,64.37,202.43,66.29,202.55Z"/><path class="cls-3" d="M.45,57.83c.12-1.15.27-2.34.44-3.54C.72,55.49.57,56.68.45,57.83Z"/><path class="cls-3" d="M26.58,13.37C27.7,12.66,28.86,12,30,11.3,28.86,12,27.7,12.66,26.58,13.37Z"/><path class="cls-3" d="M136.06,147.29c-.5.06-1,.1-1.54.14C135.05,147.4,135.56,147.35,136.06,147.29Z"/><path class="cls-3" d="M143.05,145.09c-.23.16-.47.3-.72.44C142.58,145.39,142.82,145.25,143.05,145.09Z"/><path class="cls-3" d="M140.86,146.22a20.38,20.38,0,0,1-4.47,1A20.38,20.38,0,0,0,140.86,146.22Z"/><path class="cls-3" d="M141.83,145.78a9.53,9.53,0,0,1-1,.44A9.53,9.53,0,0,0,141.83,145.78Z"/><path class="cls-3" d="M154.29,119.19c-.82,2.37-1.67,4.74-2.53,6.77C152.62,123.93,153.47,121.56,154.29,119.19Z"/><path class="cls-3" d="M144.15,144.21c-.15.14-.31.27-.47.4C143.84,144.48,144,144.35,144.15,144.21Z"/><path class="cls-3" d="M151.76,126c-.42,1-.85,2-1.28,2.77C150.91,127.92,151.34,127,151.76,126Z"/><path class="cls-3" d="M108.22,149.24c-.11.34-.21.7-.31,1.07C108,149.94,108.11,149.58,108.22,149.24Z"/><path class="cls-3" d="M107.8,150.78c-.17.7-.32,1.47-.44,2.29C107.48,152.25,107.63,151.48,107.8,150.78Z"/><path class="cls-3" d="M106.65,162.1c0,1.6-.05,3.26,0,5C106.6,165.36,106.61,163.7,106.65,162.1Z"/><path class="cls-3" d="M100.87,203.47l-.18,0Z"/><path class="cls-3" d="M113.42,146.08l-2-.2Z"/><path class="cls-3" d="M124.61,147.23c-3.66-.3-7.32-.75-10.6-1.09C117.29,146.48,121,146.93,124.61,147.23Z"/><path class="cls-3" d="M108.83,147.76a7.71,7.71,0,0,0-.43,1A7.71,7.71,0,0,1,108.83,147.76Z"/><path class="cls-3" d="M126.64,147.37l-1.86-.13Z"/><path class="cls-3" d="M145.05,143.12h0c1.9-3,2.17-9.06,4.78-13.25-2.61,4.19-2.88,10.3-4.78,13.25Z"/><path class="cls-4" d="M95.45,80.68c-.85-.21-2-.46-2.81-.66L61.05,72.57a11.14,11.14,0,0,0-13.52,9.07,15.89,15.89,0,0,0,.21,5A27.22,27.22,0,0,0,59,104.16l27.71,19.58a6.85,6.85,0,0,0,.78.6c-1.32-3.15,2.06-4.77,6.53-7.46s10-6.42,13-13.77c2.49-6.07-3.19-12.82-5.34-17.48a13.4,13.4,0,0,0-1.07-2.23C99.82,82.12,97.84,81.28,95.45,80.68Z"/><path class="cls-3" d="M155.58,79.6l-2.81-3.46.91,1.12Z"/><path class="cls-3" d="M158.93,83.81c.39.48.79,1,1.21,1.54C159.72,84.8,159.32,84.29,158.93,83.81Z"/><path class="cls-3" d="M147.36,69.68l-.11-.13h0Z"/><path class="cls-3" d="M158.38,107.77c-.32.7-.67,1.56-1,2.56C157.71,109.33,158.06,108.47,158.38,107.77Z"/><path class="cls-3" d="M160.19,85.4,161.44,87Z"/><path class="cls-3" d="M163.91,90.75a3.73,3.73,0,0,0-.64-1.36c-.53-.69-1-1.33-1.5-1.94.48.61,1,1.25,1.5,1.94A3.73,3.73,0,0,1,163.91,90.75Z"/><path class="cls-3" d="M164,94.46a11.41,11.41,0,0,0,.1-2.88A11.41,11.41,0,0,1,164,94.46Z"/><path class="cls-3" d="M150.89,73.82l-.39-.48-.65-.79.65.79Z"/><path class="cls-3" d="M126.86,147.39a63.23,63.23,0,0,0,7.39.06A63.22,63.22,0,0,1,126.86,147.39Z"/><path class="cls-3" d="M134.68,26.67c-.23,1.37,1.53,6.11,3.35,12.26-1.82-6.15-3.58-10.89-3.35-12.26,1.11-6.66-8.57-14.95-24.44-20.54C126.11,11.72,135.79,20,134.68,26.67Z"/><path class="cls-1" d="M89.72,127.32a9.89,9.89,0,0,1-2.22-3,6.85,6.85,0,0,1-.78-.6L59.11,104.23a27.37,27.37,0,0,1-11.37-17.6,15.7,15.7,0,0,1-.21-5,11.14,11.14,0,0,1,13.52-9.07L92.64,80a13.11,13.11,0,0,0,2.57.41c2.51.07,6.1-.17,10.42-.5,15.91-1.21,29.78-6.3,41.63-10.37h0c-.3-.35-.6-.7-.89-1.06l-.25-.3c-.23-.28-.46-.57-.68-.86l-.24-.3q-.44-.57-.84-1.14s-.07-.11-.11-.17c-.23-.32-.44-.64-.65-1-.07-.11-.14-.22-.2-.33-.19-.31-.37-.62-.53-.93l-.12-.24a10.84,10.84,0,0,1-.5-1.11l-.09-.27a7.36,7.36,0,0,1-.25-.85c0-.11-.05-.21-.07-.31a5.66,5.66,0,0,1-.12-1.07,58.42,58.42,0,0,0-1.43-12c-.19-.88-.39-1.75-.59-2.6-.42-1.71-.87-3.37-1.32-4.95-.12-.39-.23-.78-.34-1.17-1.82-6.15-3.58-10.89-3.35-12.26,1.11-6.66-8.57-14.95-24.44-20.54A103.37,103.37,0,0,0,98.52,2.8c-.84-.19-1.68-.37-2.54-.54C92.54,1.57,88.94,1,85.21.6,81.72.23,78.37,0,75.14,0A91.41,91.41,0,0,0,60,1.12c-1.1.18-2.2.38-3.29.6-.9.17-1.81.36-2.7.56-2.24.51-4.44,1.08-6.62,1.74-.81.24-1.61.49-2.41.76q-3.25,1.08-6.38,2.38Q35.8,8.3,33.16,9.63c-1.06.53-2.1,1.1-3.12,1.67-1.18.67-2.34,1.36-3.46,2.07C16.13,20,8,29,4.17,40A75.73,75.73,0,0,0,1.22,52.19c-.12.71-.23,1.4-.33,2.1-.17,1.2-.32,2.39-.44,3.54S.23,60.11.16,61.17C0,63.3,0,65.22,0,66.79c.69,20.06,10.26,33.32,12.8,40.47,1.5,4.24,23.17,19,3.8,53.15-1.84,3.24,23.25,30.07,33.77,38.63,2,1.58,3.4,2.54,4.08,2.61l2.92.26,3.2.26c1.88.14,3.78.26,5.7.38,2.2.13,4.41.24,6.61.34,1.9.09,3.78.16,5.64.23,8.12.28,15.71.39,21.29.42a8.11,8.11,0,0,0,.86,0l.18,0a8.15,8.15,0,0,0,3.41-1.21,8.3,8.3,0,0,0,3.88-7.82c-.68-7.33-1.48-17.94-1.55-27.38,0-1.7,0-3.36,0-5,.07-2.43.2-4.72.41-6.76.09-.8.19-1.55.3-2.27s.27-1.59.44-2.29c0-.16.07-.31.11-.47.1-.37.2-.73.31-1.07q.09-.26.18-.48a7.71,7.71,0,0,1,.43-1,.57.57,0,0,1,.08-.13,4.3,4.3,0,0,1,.87-1.18,2.22,2.22,0,0,1,.57-.37,1.94,1.94,0,0,1,1-.2h0l2,.2.59.06c3.28.34,6.94.79,10.6,1.09h.17l1.86.13.22,0a63.22,63.22,0,0,0,7.39.06l.27,0c.53,0,1-.08,1.54-.14l.33,0a20.38,20.38,0,0,0,4.47-1h0C121.08,149.81,100.66,138.26,89.72,127.32Z"/><path class="cls-3" d="M155.09,116.81c.48-1.41.94-2.78,1.38-4.06C156,114,155.57,115.4,155.09,116.81Z"/><path class="cls-5" d="M155.36,110.16c.37-1,.71-1.86,1-2.55a9.4,9.4,0,0,1,.61-1.2,33.73,33.73,0,0,0,4.9-12.06,11.33,11.33,0,0,0,.1-2.87,5.31,5.31,0,0,0-.15-.83,3.79,3.79,0,0,0-.63-1.36l-1.48-1.93-.33-.43-1.24-1.61,0,0-1.2-1.54-.2-.25-1-1.22-.12-.15-1-1.26-.1-.12-.88-1.11-.06-.08-1.88-2.33c-.3-.36-.6-.74-.9-1.12l-.12-.14-.54-.67-.39-.49-.39-.48-.42-.53-.38-.48-.65-.78-.25-.3q-.24-.27-.48-.57c-.15-.16-.29-.32-.43-.49l-.54-.62-.75-.88-.11-.12c-11.7,4-25.41,9.13-41.14,10.34-4.27.32-5.11,1.86-4.49,4.12a6.87,6.87,0,0,1,.58,1.55c2.12,4.64,7.73,11.37,5.28,17.41-3,7.33-8.44,11.06-12.83,13.72S85,121,86.34,124.12a9.9,9.9,0,0,0,2.19,3c10.82,10.9,31,22.41,50.55,18.83h0a7.57,7.57,0,0,0,1-.43c.17-.08.34-.16.49-.25a6.59,6.59,0,0,0,.72-.44c.21-.15.42-.31.62-.48a4.4,4.4,0,0,0,.46-.4,6.16,6.16,0,0,0,.89-1.08h0c1.88-2.94,2.15-9,4.73-13.21.21-.34.42-.71.63-1.12.42-.81.84-1.74,1.27-2.75.84-2,1.68-4.39,2.49-6.76.27-.79.53-1.58.8-2.36.47-1.41.92-2.78,1.36-4.05C154.81,111.71,155.09,110.9,155.36,110.16Z"/><path class="cls-3" d="M104.28,202.26a8.3,8.3,0,0,0,3.88-7.82c-.68-7.33-1.48-17.94-1.55-27.38.07,9.44.87,20.05,1.55,27.38A8.3,8.3,0,0,1,104.28,202.26Z"/><path class="cls-3" d="M44.94,4.78c.8-.27,1.6-.52,2.41-.76C46.54,4.26,45.74,4.51,44.94,4.78Z"/><path class="cls-3" d="M96,2.26C92.54,1.57,88.94,1,85.21.6,81.72.23,78.37,0,75.14,0c3.23,0,6.58.23,10.07.6C88.94,1,92.54,1.57,96,2.26Z"/><path class="cls-3" d="M108.91,147.63a4.3,4.3,0,0,1,.87-1.18A4.3,4.3,0,0,0,108.91,147.63Z"/><path class="cls-3" d="M110.35,146.08a1.94,1.94,0,0,1,1-.2h0A1.94,1.94,0,0,0,110.35,146.08Z"/><path class="cls-3" d="M142.74,63.25l.12.24Z"/><path class="cls-3" d="M142.15,61.87l.09.27Z"/><path class="cls-3" d="M144.24,65.72c0,.06.07.12.11.17S144.28,65.78,144.24,65.72Z"/><path class="cls-3" d="M143.39,64.42c.06.11.13.22.2.33C143.52,64.64,143.45,64.53,143.39,64.42Z"/><path class="cls-3" d="M141.83,60.71c0,.1,0,.2.07.31C141.87,60.91,141.85,60.81,141.83,60.71Z"/><path class="cls-3" d="M98.52,2.8a103.37,103.37,0,0,1,11.72,3.33A103.37,103.37,0,0,0,98.52,2.8Z"/><path class="cls-3" d="M139.69,45.05c.2.85.4,1.72.59,2.6C140.09,46.77,139.89,45.9,139.69,45.05Z"/><path class="cls-3" d="M54,2.28c.89-.2,1.8-.39,2.7-.56C55.77,1.89,54.86,2.08,54,2.28Z"/><path class="cls-3" d="M138.37,40.1c.45,1.58.9,3.24,1.32,4.95C139.27,43.34,138.82,41.68,138.37,40.1Z"/><path class="cls-3" d="M156.64,80.92l1,1.25Z"/><path class="cls-3" d="M155.65,79.68l.89,1.11Z"/><path class="cls-3" d="M152.1,75.32l.55.67Z"/><path class="cls-3" d="M151.31,74.35c.14.16.26.32.39.48C151.57,74.67,151.45,74.51,151.31,74.35Z"/><path class="cls-3" d="M157.76,82.33c.31.39.64.79,1,1.22C158.4,83.12,158.07,82.72,157.76,82.33Z"/><path class="cls-3" d="M148.13,70.57l.54.61Z"/><path class="cls-3" d="M149.1,71.68l.5.58Z"/><path class="cls-3" d="M146.11,68.19l.25.3Z"/><path class="cls-3" d="M145.19,67l.24.3Z"/><path class="cls-1" d="M84.53,122.39l0,.11a10.2,10.2,0,0,0,2.14,2.86c10.81,10.89,31,22.38,50.55,18.8h0c.33-.13.64-.28,1-.43l.49-.25a6.46,6.46,0,0,0,.71-.44,7.47,7.47,0,0,0,.63-.48,5.6,5.6,0,0,0,.45-.4,6.22,6.22,0,0,0,.9-1.08h0c1.88-3,2.15-9,4.73-13.2.21-.34.42-.71.63-1.12.42-.81.85-1.74,1.27-2.75.85-2,1.69-4.38,2.49-6.75.27-.79.54-1.58.8-2.36.47-1.41.93-2.77,1.36-4,.3-.86.59-1.67.86-2.41.37-1,.71-1.86,1-2.55a10.77,10.77,0,0,1,.62-1.2,33.58,33.58,0,0,0,4.89-12,11.3,11.3,0,0,0,.11-2.86A6.78,6.78,0,0,0,160,89a3.65,3.65,0,0,0-.62-1.35l-1.48-1.94c-.12-.14-.22-.28-.33-.42l-1.24-1.61-.05,0-1.19-1.54c-.07-.09-.14-.17-.2-.26l-1-1.21-.12-.15-1-1.26-.1-.12-.88-1.1-.07-.08c-.63-.8-1.25-1.56-1.88-2.33l-.9-1.12-.12-.15-.53-.67c-.13-.16-.27-.32-.4-.49s-.25-.31-.38-.47-.28-.36-.43-.53l-.38-.48c-.2-.25-.41-.51-.64-.78l-.25-.29-.49-.58-.43-.49c-.17-.21-.35-.41-.53-.62l-.76-.88-.08-.09,1.67-.58.11.13.82,1,.57.65.46.53.52.61.27.31c.25.29.48.57.7.84l.41.51c.15.19.31.38.45.57l.42.51.42.52.58.71.13.16,1,1.19c.67.84,1.33,1.65,2,2.49l.07.09,1,1.18.1.13,1.07,1.34a1.83,1.83,0,0,1,.13.16l1,1.3.21.27L159,84.12l.05,0,1.33,1.72.36.46,1.59,2.06a4.05,4.05,0,0,1,.68,1.45,7.45,7.45,0,0,1,.16.89,12.32,12.32,0,0,1-.11,3,35.76,35.76,0,0,1-5.27,12.88,11.35,11.35,0,0,0-.66,1.28c-.35.74-.72,1.66-1.11,2.72-.3.8-.6,1.66-.92,2.58-.47,1.36-1,2.82-1.47,4.32-.28.84-.57,1.68-.86,2.52-.87,2.53-1.77,5.05-2.68,7.21-.46,1.08-.91,2.08-1.37,2.94-.22.44-.45.84-.67,1.2-2.78,4.47-3.07,11-5.09,14.1h0a6.59,6.59,0,0,1-1,1.15c-.15.16-.33.29-.49.43s-.44.35-.68.51a6.45,6.45,0,0,1-.76.47c-.17.1-.35.18-.53.27-.34.16-.67.32-1,.46h0c-21,3.82-42.75-8.46-54.39-20.1-1.22-1.21-5.16-4.63-5.55-5.55l6-.77"/><circle class="cls-1" cx="170.84" cy="112.98" r="5.69"/><circle class="cls-1" cx="187.15" cy="138.8" r="7.83"/></g></g></svg>