<svg xmlns="http://www.w3.org/2000/svg" viewBox="0 0 80 80"><defs><style>.cls-1{fill:#adadb9;}.cls-2{fill:#fff;}</style></defs><title>X1_gefüllt_grau</title><g id="Ebene_2" data-name="Ebene 2"><g id="Ebene_1-2" data-name="Ebene 1"><path class="cls-1" d="M40.2,54.78,23.3,72.13a7.47,7.47,0,0,1-3.93,2.14,40,40,0,0,0,42.16-.56,7.65,7.65,0,0,1-4-2Z"/><path class="cls-1" d="M39.8,25.22,56.7,7.87a7.47,7.47,0,0,1,3.93-2.14,40,40,0,0,0-42.16.56,7.65,7.65,0,0,1,4,2Z"/><path class="cls-1" d="M25.22,40.2,7.87,23.3a7.47,7.47,0,0,1-2.14-3.93,40,40,0,0,0,.56,42.16,7.65,7.65,0,0,1,2-4Z"/><path class="cls-1" d="M54.78,39.8,72.13,56.7a7.47,7.47,0,0,1,2.14,3.93,40,40,0,0,0-.56-42.16,7.65,7.65,0,0,1-2,4Z"/><path class="cls-2" d="M74.27,60.63a7.47,7.47,0,0,0-2.14-3.93L54.78,39.8l16.9-17.35a7.65,7.65,0,0,0,2-4A40.31,40.31,0,0,0,60.63,5.73,7.47,7.47,0,0,0,56.7,7.87L39.8,25.22,22.45,8.32a7.65,7.65,0,0,0-4-2A40.31,40.31,0,0,0,5.73,19.37,7.47,7.47,0,0,0,7.87,23.3L25.22,40.2,8.32,57.55a7.65,7.65,0,0,0-2,4A40.31,40.31,0,0,0,19.37,74.27a7.47,7.47,0,0,0,3.93-2.14L40.2,54.78l17.35,16.9a7.65,7.65,0,0,0,4,2A40.31,40.31,0,0,0,74.27,60.63Z"/></g></g></svg>