<svg xmlns="http://www.w3.org/2000/svg" viewBox="0 0 80 80"><defs><style>.cls-1{fill:#adadb9;}</style></defs><title>X1_leer_grau</title><g id="Ebene_2" data-name="Ebene 2"><g id="Ebene_1-2" data-name="Ebene 1"><path class="cls-1" d="M54.78,39.8,72.13,56.7a7.47,7.47,0,0,1,2.14,3.93,40,40,0,0,0-.56-42.16,7.65,7.65,0,0,1-2,4Z"/><path class="cls-1" d="M39.8,25.22,56.7,7.87a7.47,7.47,0,0,1,3.93-2.14,40,40,0,0,0-42.16.56,7.65,7.65,0,0,1,4,2Z"/><path class="cls-1" d="M25.22,40.2,7.87,23.3a7.47,7.47,0,0,1-2.14-3.93,40,40,0,0,0,.56,42.16,7.65,7.65,0,0,1,2-4Z"/><path class="cls-1" d="M40.2,54.78,23.3,72.13a7.47,7.47,0,0,1-3.93,2.14,40,40,0,0,0,42.16-.56,7.65,7.65,0,0,1-4-2Z"/></g></g></svg>