<svg xmlns="http://www.w3.org/2000/svg" viewBox="0 0 80 80"><defs><style>.cls-1{fill:#adadb9;}</style></defs><title>X2_leer_grau</title><g id="Ebene_2" data-name="Ebene 2"><g id="Ebene_1-2" data-name="Ebene 1"><path class="cls-1" d="M39.47,0A40,40,0,1,0,80,39.47,40,40,0,0,0,39.47,0ZM66.78,62.77l-3.3,3.39a6.32,6.32,0,0,1-8.92.12l-14.4-14-14,14.4a6.31,6.31,0,0,1-8.91.12l-3.39-3.3a6.32,6.32,0,0,1-.12-8.92l14-14.4-14.4-14a6.31,6.31,0,0,1-.12-8.91l3.3-3.39a6.32,6.32,0,0,1,8.92-.12l14.4,14,14-14.4a6.31,6.31,0,0,1,8.91-.12l3.39,3.3a6.32,6.32,0,0,1,.12,8.92l-14,14.4,14.4,14A6.31,6.31,0,0,1,66.78,62.77Z"/></g></g></svg>