<svg xmlns="http://www.w3.org/2000/svg" viewBox="0 0 205.62 205.75"><defs><style>.cls-1{fill:#1e2275;}.cls-2{fill:#fff;}</style></defs><title>Fiebert_blau</title><g id="Ebene_2" data-name="Ebene 2"><g id="Ebene_1-2" data-name="Ebene 1"><path class="cls-1" d="M176.88.38c-6.95-1.2-13.26.48-17.44,4.67L42.64,121.85c-3.18,3.18-2.87,14.84-2.55,23.45a12.44,12.44,0,0,1-3.41,9.48L1.15,194c-1.92,1.92-1.38,5.59,1.19,8.16l1.29,1.29c2.57,2.57,6.24,3.11,8.16,1.19l37.46-33.81A18.6,18.6,0,0,1,63,165.68c8.75.16,17.77.08,20.65-2.8L200.58,46c4.12-4.12,5.82-10.31,4.71-17.16h0C203.1,15.28,190.68,2.76,177.12.42Z"/><path class="cls-2" d="M166.88,30c-.18.12-.13.42.08.63.72.71,2.13,2.26,1.45,3L32.74,169.27c-1.12,1.11-2.24-.38-2.8-1.33-.18-.32-.59-.45-.78-.25l-2.49,2.49a1.71,1.71,0,0,0-1.63.26l-13.1,14.47-8,8c-1.18,1.18-.75,3.54,1,5.26l.32.32c1.72,1.71,4.08,2.14,5.26,1l8-8L33,178.35a1.71,1.71,0,0,0,.26-1.63l139.9-139.9c1.18-1.18.74-3.54-1-5.25l-.32-.32C170.25,29.67,168.12,29.18,166.88,30Z"/><rect class="cls-2" x="65.03" y="112.54" width="3.45" height="22.31" rx="1.69" ry="1.69" transform="translate(-67.91 83.43) rotate(-45)"/><rect class="cls-2" x="79.8" y="108.56" width="3.45" height="13.36" rx="1.69" ry="1.69" transform="translate(-57.61 91.4) rotate(-45)"/><rect class="cls-2" x="111.46" y="66.11" width="3.45" height="22.31" rx="1.69" ry="1.69" transform="translate(-21.48 102.66) rotate(-45)"/><rect class="cls-2" x="126.23" y="62.14" width="3.45" height="13.36" rx="1.69" ry="1.69" transform="translate(-11.18 110.63) rotate(-45)"/><rect class="cls-2" x="88.25" y="89.32" width="3.45" height="22.31" rx="1.69" ry="1.69" transform="translate(-44.69 93.05) rotate(-45)"/><rect class="cls-2" x="103.02" y="85.35" width="3.45" height="13.36" rx="1.69" ry="1.69" transform="translate(-34.4 101.02) rotate(-45)"/><rect class="cls-2" x="134.67" y="42.89" width="3.45" height="22.31" rx="1.69" ry="1.69" transform="translate(1.73 112.28) rotate(-45)"/></g></g></svg>