<svg xmlns="http://www.w3.org/2000/svg" viewBox="0 0 207.17 172"><defs><style>.cls-1{fill:#adadb9;}</style></defs><title>Statistik_grau</title><g id="Ebene_2" data-name="Ebene 2"><g id="Ebene_1-2" data-name="Ebene 1"><path class="cls-1" d="M8.12,94.31H34.55a8.12,8.12,0,0,1,8.12,8.12V172a0,0,0,0,1,0,0H0a0,0,0,0,1,0,0V102.43A8.12,8.12,0,0,1,8.12,94.31Z"/><path class="cls-1" d="M175,42.33h21.69a10.49,10.49,0,0,1,10.49,10.49V172a0,0,0,0,1,0,0H164.5a0,0,0,0,1,0,0V52.82A10.49,10.49,0,0,1,175,42.33Z"/><path class="cls-1" d="M119.06,68h23.88a9.39,9.39,0,0,1,9.39,9.39V172a0,0,0,0,1,0,0H109.67a0,0,0,0,1,0,0V77.44A9.39,9.39,0,0,1,119.06,68Z"/><path class="cls-1" d="M65.22,45h21.9A10.38,10.38,0,0,1,97.5,55.38V172a0,0,0,0,1,0,0H54.83a0,0,0,0,1,0,0V55.38A10.38,10.38,0,0,1,65.22,45Z"/><rect class="cls-1" x="-4.74" y="38.98" width="95.38" height="11.03" transform="translate(-18.84 47.19) rotate(-48.51)"/><rect class="cls-1" x="64.91" y="20.08" width="71.98" height="11.03" transform="translate(20.24 -40.2) rotate(24.97)"/><rect class="cls-1" x="124.11" y="18.99" width="66.02" height="11.03" transform="translate(8.8 81.85) rotate(-30)"/><circle class="cls-1" cx="11.83" cy="80" r="8.5"/><circle class="cls-1" cx="71.83" cy="13" r="8.5"/><circle class="cls-1" cx="130.83" cy="38.5" r="8.5"/><circle class="cls-1" cx="185.33" cy="8.5" r="8.5"/></g></g></svg>